<svg xmlns="http://www.w3.org/2000/svg" xmlns:xlink="http://www.w3.org/1999/xlink" width="176" height="202" viewBox="0 0 176 202">
  <defs>
    <filter id="Ellipse_515" x="28" y="28" width="120" height="120" filterUnits="userSpaceOnUse">
      <feOffset dy="3" input="SourceAlpha"/>
      <feGaussianBlur stdDeviation="3" result="blur"/>
      <feFlood flood-opacity="0.161"/>
      <feComposite operator="in" in2="blur"/>
      <feComposite in="SourceGraphic"/>
    </filter>
    <filter id="Ellipse_515-2" x="28" y="28" width="120" height="120" filterUnits="userSpaceOnUse">
      <feOffset dy="3" input="SourceAlpha"/>
      <feGaussianBlur stdDeviation="3" result="blur-2"/>
      <feFlood flood-opacity="0.161" result="color"/>
      <feComposite operator="out" in="SourceGraphic" in2="blur-2"/>
      <feComposite operator="in" in="color"/>
      <feComposite operator="in" in2="SourceGraphic"/>
    </filter>
    <filter id="Ellipse_518" x="39" y="39" width="98" height="98" filterUnits="userSpaceOnUse">
      <feOffset dy="3" input="SourceAlpha"/>
      <feGaussianBlur stdDeviation="3" result="blur-3"/>
      <feFlood flood-opacity="0.161"/>
      <feComposite operator="in" in2="blur-3"/>
      <feComposite in="SourceGraphic"/>
    </filter>
    <filter id="Ellipse_518-2" x="39" y="39" width="98" height="98" filterUnits="userSpaceOnUse">
      <feOffset dy="3" input="SourceAlpha"/>
      <feGaussianBlur stdDeviation="3" result="blur-4"/>
      <feFlood flood-opacity="0.161" result="color-2"/>
      <feComposite operator="out" in="SourceGraphic" in2="blur-4"/>
      <feComposite operator="in" in="color-2"/>
      <feComposite operator="in" in2="SourceGraphic"/>
    </filter>
    <filter id="Subtraction_85" x="0" y="0" width="176" height="176" filterUnits="userSpaceOnUse">
      <feOffset dy="3" input="SourceAlpha"/>
      <feGaussianBlur stdDeviation="3" result="blur-5"/>
      <feFlood flood-opacity="0.161"/>
      <feComposite operator="in" in2="blur-5"/>
      <feComposite in="SourceGraphic"/>
    </filter>
    <filter id="Subtraction_85-2" x="0" y="0" width="176" height="176" filterUnits="userSpaceOnUse">
      <feOffset dy="3" input="SourceAlpha"/>
      <feGaussianBlur stdDeviation="3" result="blur-6"/>
      <feFlood flood-opacity="0.161" result="color-3"/>
      <feComposite operator="out" in="SourceGraphic" in2="blur-6"/>
      <feComposite operator="in" in="color-3"/>
      <feComposite operator="in" in2="SourceGraphic"/>
    </filter>
  </defs>
  <g id="Group_5178" data-name="Group 5178" transform="translate(-237 -277)">
    <g data-type="innerShadowGroup">
      <g transform="matrix(1, 0, 0, 1, 237, 277)" filter="url(#Ellipse_515)">
        <circle id="Ellipse_515-3" data-name="Ellipse 515" cx="51" cy="51" r="51" transform="translate(37 34)" fill="#3973ff"/>
      </g>
      <g transform="matrix(1, 0, 0, 1, 237, 277)" filter="url(#Ellipse_515-2)">
        <circle id="Ellipse_515-4" data-name="Ellipse 515" cx="51" cy="51" r="51" transform="translate(37 34)" fill="#fff"/>
      </g>
    </g>
    <g data-type="innerShadowGroup">
      <g transform="matrix(1, 0, 0, 1, 237, 277)" filter="url(#Ellipse_518)">
        <circle id="Ellipse_518-3" data-name="Ellipse 518" cx="40" cy="40" r="40" transform="translate(48 45)" fill="#3973ff"/>
      </g>
      <g transform="matrix(1, 0, 0, 1, 237, 277)" filter="url(#Ellipse_518-2)">
        <circle id="Ellipse_518-4" data-name="Ellipse 518" cx="40" cy="40" r="40" transform="translate(48 45)" fill="#fff"/>
      </g>
    </g>
    <text id="Add_New_Driver" data-name="Add New Driver" transform="translate(241 474)" fill="#3973ff" font-size="20" font-family="SegoeUI-Bold, Segoe UI" font-weight="700" letter-spacing="0.069em"><tspan x="0" y="0">Add New Driver</tspan></text>
    <g data-type="innerShadowGroup">
      <g transform="matrix(1, 0, 0, 1, 237, 277)" filter="url(#Subtraction_85)">
        <path id="Subtraction_85-3" data-name="Subtraction 85" d="M5378,3283a78.629,78.629,0,0,1-44.169-13.492,79.23,79.23,0,0,1-28.623-34.757,78.895,78.895,0,0,1,7.284-74.92,79.236,79.236,0,0,1,34.758-28.622,78.895,78.895,0,0,1,74.92,7.284,79.232,79.232,0,0,1,28.622,34.757,78.895,78.895,0,0,1-7.284,74.92,79.232,79.232,0,0,1-34.757,28.622A78.5,78.5,0,0,1,5378,3283Zm0-141a62,62,0,1,0,62,62A62.07,62.07,0,0,0,5378,3142Z" transform="translate(-5290 -3119)" fill="#3973ff"/>
      </g>
      <g transform="matrix(1, 0, 0, 1, 237, 277)" filter="url(#Subtraction_85-2)">
        <path id="Subtraction_85-4" data-name="Subtraction 85" d="M5378,3283a78.629,78.629,0,0,1-44.169-13.492,79.23,79.23,0,0,1-28.623-34.757,78.895,78.895,0,0,1,7.284-74.92,79.236,79.236,0,0,1,34.758-28.622,78.895,78.895,0,0,1,74.92,7.284,79.232,79.232,0,0,1,28.622,34.757,78.895,78.895,0,0,1-7.284,74.92,79.232,79.232,0,0,1-34.757,28.622A78.5,78.5,0,0,1,5378,3283Zm0-141a62,62,0,1,0,62,62A62.07,62.07,0,0,0,5378,3142Z" transform="translate(-5290 -3119)" fill="#fff"/>
      </g>
    </g>
    <g id="Group_5177" data-name="Group 5177" transform="translate(0 -84)">
      <line id="Line_86" data-name="Line 86" y2="44" transform="translate(325.5 422.5)" fill="none" stroke="#fff" stroke-linecap="round" stroke-width="15"/>
    </g>
    <line id="Line_87" data-name="Line 87" x2="44" transform="translate(303.5 360.5)" fill="none" stroke="#fff" stroke-linecap="round" stroke-width="15"/>
  </g>
</svg>
