<svg xmlns="http://www.w3.org/2000/svg" width="586.992" height="515.281" viewBox="0 0 586.992 515.281"><g transform="translate(0 0)" opacity="0.28"><path d="M556.382,224.314V200.982c0-42.666-28.448-78.53-66.82-88.807l-.069-38.47c0-37.543-29.686-68.1-66.181-68.1h-3.5L110.084,104.5a63.729,63.729,0,0,0-20.032,4.624h-.808C40.041,109.119,0,150.328,0,200.982V429.028c0,50.646,40.033,91.863,89.244,91.863H467.138c49.2,0,89.244-41.209,89.244-91.863V398.7a49.19,49.19,0,0,0,30.61-45.833V270.131A49.2,49.2,0,0,0,556.382,224.314ZM540.827,352.857a1.633,1.633,0,0,1-1.623,1.671H414.265a1.627,1.627,0,0,1-1.615-1.671V270.131a1.637,1.637,0,0,1,1.615-1.655H539.2a1.644,1.644,0,0,1,1.623,1.655ZM426.166,53.327a20.446,20.446,0,0,1,17.17,20.418l.062,35.382h-192ZM467.138,473.38H89.252c-23.794,0-43.087-19.864-43.087-44.36V200.982c0-24.5,19.294-44.36,43.087-44.36H467.138c23.8,0,43.087,19.856,43.087,44.36v19.991h-95.96c-26.34,0-47.772,22.049-47.772,49.158v82.727c0,27.116,21.432,49.173,47.772,49.173h95.96v27C510.225,453.516,490.939,473.38,467.138,473.38Z" transform="translate(0 -5.61)" fill="#242636"/></g></svg>