<svg xmlns="http://www.w3.org/2000/svg" xmlns:xlink="http://www.w3.org/1999/xlink" width="1116.882" height="645.387" viewBox="0 0 1116.882 645.387">
  <defs>
    <clipPath id="clip-path">
      <path id="path110" d="M1637.04-1374.157c-22.649-.339-103.218,1.383-103.218,1.383l48.37,170.354v170.355h109.63l7.071-170.355,48.37-170.354s-86.845-1.722-110.223-1.383" transform="translate(-1533.823 1374.202)"/>
    </clipPath>
    <clipPath id="clip-path-2">
      <path id="path176" d="M284.386-2091.968l101.549,206.106-174.89,55.1s-39.492-179.933,73.341-261.2" transform="translate(-204.349 2091.968)"/>
    </clipPath>
    <clipPath id="clip-path-3">
      <path id="path194" d="M228.8-1420.284l121.553,275.266a76.748,76.748,0,0,0,70.2,45.74H479.81l-70.4-378.784L228.8-1420.284" transform="translate(-228.805 1478.063)"/>
    </clipPath>
    <clipPath id="clip-path-4">
      <path id="path210" d="M2956.532-2104.555l-101.552,206.106,174.89,55.1s39.492-179.933-73.338-261.2" transform="translate(-2854.979 2104.555)"/>
    </clipPath>
    <clipPath id="clip-path-5">
      <path id="path238" d="M2882.477-1427.431,2760.925-1152.17a76.749,76.749,0,0,1-70.2,45.744h-59.247l70.392-378.784,180.611,57.779" transform="translate(-2631.473 1485.21)"/>
    </clipPath>
    <clipPath id="clip-path-6">
      <path id="path274" d="M2127.9-955.363l76.763-259.288a57.282,57.282,0,0,1,32.7-36.532,57.258,57.258,0,0,1,22.23-4.493h127.692a43.8,43.8,0,0,1,33.4,15.465,43.8,43.8,0,0,1,9.8,35.563L2392.652-978.4a27.585,27.585,0,0,1-27.208,23.035H2127.9" transform="translate(-2127.901 1255.677)"/>
    </clipPath>
    <clipPath id="clip-path-7">
      <path id="path298" d="M2620.141-1415.965h-89.2a26,26,0,0,1-26-26v-17.328a26,26,0,0,1,26-26h89.2a26,26,0,0,1,25.994,26v17.328a26,26,0,0,1-25.994,26" transform="translate(-2504.94 1485.29)"/>
    </clipPath>
    <clipPath id="clip-path-8">
      <path id="path332" d="M900.6-955.363l-76.761-259.288a57.284,57.284,0,0,0-32.7-36.532,57.277,57.277,0,0,0-22.231-4.493H641.215a43.8,43.8,0,0,0-33.4,15.465,43.8,43.8,0,0,0-9.8,35.563l37.427,223.782a30.542,30.542,0,0,0,30.126,25.5H900.6" transform="translate(-597.412 1255.677)"/>
    </clipPath>
    <clipPath id="clip-path-9">
      <path id="path348" d="M705.462-1415.965h89.2a26,26,0,0,0,26-26v-17.328a26,26,0,0,0-26-26h-89.2a26,26,0,0,0-26,26v17.328a26,26,0,0,0,26,26" transform="translate(-679.465 1485.29)"/>
    </clipPath>
  </defs>
  <g id="g10" transform="translate(-1866.533 3785.032)" opacity="0.1" style="isolation: isolate">
    <g id="g12">
      <g id="g18" transform="translate(1966.09 -3777.165)">
        <path id="path20" d="M1273.712-1897.379a2938.268,2938.268,0,0,0-649.527-1.534Q560.1-2040.389,486.5-2179.067a3233.3,3233.3,0,0,1,911.13,0Q1331.6-2039.4,1273.709-1897.379" transform="translate(-486.496 2211.322)" fill="#f1f2f2"/>
      </g>
      <g id="g22" transform="translate(1966.09 -3777.165)">
        <path id="path24" d="M486.5-2179.067q13.609,25.629,26.9,51.37,93.064-12.665,186.608-19.809-7.833-26.775-15.863-53.516,7.489-.6,14.98-1.162,7.6,26.8,15.024,53.635,30.6-2.2,61.226-3.813-5.622-27.033-11.387-54.054,7.5-.408,15-.79,5.34,27.053,10.545,54.133,45.6-2.192,91.234-3.069-2.519-27.252-5.114-54.5,7.5-.149,15.008-.272,2.167,27.263,4.277,54.532,74.121-1.106,148.242,1.255,2.252-27.233,4.557-54.472,7.493.249,15,.525-2.72,27.212-5.394,54.432,99.266,3.6,198.271,13.406,8.49-26.585,17.179-53.13,7.473.768,14.947,1.574-9.107,26.476-18.009,52.991,51.955,5.38,103.763,12.482-2.372,5.151-4.73,10.3-51.207-6.955-102.567-12.243-27.582,82.562-53.15,165.547,42.279,3.838,84.471,8.875l-4.365,10.407q-23.117-2.735-46.268-5.11-8.45,23.75-16.694,47.543-5.331-.526-10.662-1.031,7.932-23.845,16.029-47.652-68.953-6.808-138.1-10.408-3.956,24.314-7.832,48.637-5.341-.269-10.688-.518,3.547-24.348,7.161-48.689-74.613-3.6-149.313-3.469.868,24.485,1.712,48.972-5.342.006-10.689.032-1.178-24.482-2.389-48.962-11.6.065-23.194.219c-27.791.353-53.479-20.464-57.384-46.954q-3.641-25.265-7.382-50.521-15.327.52-30.647,1.193,5.117,27.866,10.1,55.746c3.213,18.214-9.988,33.629-29.353,34.627q-13.012.672-26.023,1.457,7.3,28.916,14.377,57.864-5.341.3-10.679.624-7.478-28.9-15.184-57.772-18.576,1.194-37.139,2.617-31.019,2.38-62,5.4,11.235,28.343,22.146,56.767-5.33.49-10.658,1-11.306-28.354-22.949-56.626-20.55,2.086-41.079,4.456,13.1,27.984,25.825,56.073a2938.232,2938.232,0,0,1,649.527,1.534q57.873-141.956,123.917-281.688a3233.321,3233.321,0,0,0-911.13,0" transform="translate(-486.496 2211.321)" fill="#e6e7e8"/>
      </g>
      <path id="path26" d="M1221.5-1703.535q13.182-.8,26.369-1.5c13.221-.687,22.1-11.117,19.752-23.364q-5.378-27.847-10.906-55.681-27.637,1.327-55.254,3.152,10.212,38.659,20.039,77.389" transform="translate(1016.91 -1842.333)" fill="#e6e7e8"/>
      <g id="g28" transform="translate(2514.424 -3628.333)">
        <path id="path30" d="M2093.351-1699.484q6.547-43.8,13.351-87.574-29.324-1.512-58.663-2.47-3.857,43.968-7.563,87.941,26.445.818,52.875,2.1" transform="translate(-2040.476 1789.528)" fill="#e6e7e8"/>
      </g>
      <g id="g32" transform="translate(2449.017 -3711.611)">
        <path id="path34" d="M1999.6-2021q-72.071-3.912-144.24-4.544-.118,35.458-.245,70.922,66.681.588,133.313,4.049,5.5-35.223,11.172-70.427" transform="translate(-1855.113 2025.54)" fill="#e6e7e8"/>
      </g>
      <path id="path36" d="M1200.493-2013.768q-30.269,1.574-60.514,3.726,9.589,34.87,18.863,69.786,27.959-1.863,55.939-3.223-7.022-35.159-14.289-70.289" transform="translate(1056.697 -1693.689)" fill="#e6e7e8"/>
      <path id="path38" d="M666.28-1975.6q-44.369,4.714-88.63,10.684,17.176,33.458,33.8,67.1,40.936-5.194,81.969-9.287-13.349-34.3-27.144-68.5" transform="translate(1420.604 -1718.392)" fill="#e6e7e8"/>
      <path id="path40" d="M815.052-1763.689q-23.136,1.934-46.246,4.22-40.528,4.009-80.967,9.085,18.314,37.262,35.956,74.721,57.937-6.761,116.05-11.268-12.159-38.426-24.792-76.758" transform="translate(1349.297 -1855.526)" fill="#bcbec0"/>
      <path id="path42" d="M950.225-2000.3q-40.968,3.105-81.868,7.264,13.26,34.3,26.093,68.689,23.4-2.237,46.833-4.121,14.427-1.158,28.861-2.183-9.793-34.848-19.919-69.649" transform="translate(1232.476 -1702.404)" fill="#e6e7e8"/>
      <path id="path44" d="M1108.172-1693.627q13-.953,26-1.8-10.378-38.659-21.163-77.247-14.258.995-28.508,2.131,12.061,38.419,23.671,76.918" transform="translate(1092.6 -1849.711)" fill="#e6e7e8"/>
      <g id="g46" transform="translate(2604.135 -3700.946)">
        <path id="path48" d="M2420.75-1985.641q-61.733-6.045-123.621-9.673-1.206,6.854-2.411,13.715,60.949,3.539,121.767,9.443,2.127-6.743,4.265-13.485" transform="translate(-2294.719 1995.315)" fill="#d1d3d4"/>
      </g>
      <g id="g50" transform="translate(2583.265 -3578.514)">
        <path id="path52" d="M2235.574-1634.615q52.926,2.828,105.763,7.52,2-6.765,4.03-13.529-53.695-4.813-107.51-7.718l-2.282,13.728" transform="translate(-2235.574 1648.342)" fill="#d1d3d4"/>
      </g>
      <g id="g54" transform="translate(2587.356 -3603.016)">
        <path id="path56" d="M2247.167-1704.054q54.487,2.968,108.885,7.886,2.034-6.761,4.079-13.522-55.27-5.052-110.658-8.092-1.15,6.869-2.306,13.727" transform="translate(-2247.167 1717.781)" fill="#e6e7e8"/>
      </g>
      <g id="g58" transform="translate(2578.802 -3554.015)">
        <path id="path60" d="M2222.924-1562.6q51.215,2.688,102.348,7.13,2.354-8.039,4.73-16.077-52.141-4.586-104.393-7.361-1.345,8.154-2.685,16.309" transform="translate(-2222.924 1578.913)" fill="#d1d3d4"/>
      </g>
      <g id="g62" transform="translate(2591.483 -3627.502)">
        <path id="path64" d="M2258.862-1773.455q56.08,3.1,112.053,8.258,2.059-6.757,4.124-13.514-56.853-5.286-113.841-8.466-1.176,6.857-2.336,13.721" transform="translate(-2258.862 1787.176)" fill="#d1d3d4"/>
      </g>
      <path id="path66" d="M1755.549-1706q43.465-.085,86.925,1.1,3.091-44,6.29-87.993-48.221-1.369-96.462-1.228,1.666,44.065,3.246,88.125" transform="translate(660.437 -1835.82)" fill="#d1d3d4"/>
      <path id="path68" d="M1568.452-1705.584q11.757-.162,23.5-.23-2.195-44.051-4.507-88.1-35.074.24-70.134,1.289,3.366,25.279,6.648,50.562c2.724,20.551,22.649,36.763,44.488,36.481" transform="translate(812.507 -1835.965)" fill="#e6e7e8"/>
      <path id="path70" d="M1364.36-1951.913q75.787-3.366,151.658-3.011-.4-35.462-.809-70.924-82.06-.353-164.078,3.547,6.725,35.18,13.23,70.388" transform="translate(920.053 -1685.852)" fill="#d1d3d4"/>
      <g id="g72" transform="translate(2595.658 -3651.991)">
        <path id="path74" d="M2270.693-1842.856q57.688,3.245,115.257,8.642,2.076-6.752,4.168-13.5-58.467-5.541-117.07-8.862-1.177,6.863-2.355,13.72" transform="translate(-2270.693 1856.575)" fill="#e6e7e8"/>
      </g>
      <g id="g76" transform="translate(2599.873 -3676.471)">
        <path id="path78" d="M2282.639-1912.23q59.311,3.383,118.5,9.031,2.1-6.747,4.214-13.49-60.088-5.791-120.33-9.265-1.187,6.859-2.38,13.723" transform="translate(-2282.639 1925.954)" fill="#e6e7e8"/>
      </g>
      <path id="path80" d="M1830.011-1889.388c0-.061.01-.1.01-.1h-.01a30.782,30.782,0,0,0-30.778-30.308,30.788,30.788,0,0,0-30.778,30.308h0s0,.037,0,.1c0,.127,0,.254,0,.381a30.709,30.709,0,0,0,.885,7.339c2.042,13.1,8.685,40.019,29.9,59.971,21.218-19.953,27.862-46.869,29.9-59.971a30.947,30.947,0,0,0,.884-7.339c0-.127,0-.254-.009-.381" transform="translate(649.988 -1754.503)" fill="#e5505b"/>
      <path id="path82" d="M1843.133-1863.553a15.051,15.051,0,0,1-15.055,15.055,15.054,15.054,0,0,1-15.055-15.055,15.057,15.057,0,0,1,15.055-15.055,15.054,15.054,0,0,1,15.055,15.055" transform="translate(621.143 -1781.157)" fill="#fff"/>
      <g id="g84" transform="translate(2229.789 -3785.032)">
        <path id="path86" d="M1368.481-2184.978H1237.866a4.048,4.048,0,0,1-4.046-4.047v-40.544a4.048,4.048,0,0,1,4.046-4.047h130.616a4.045,4.045,0,0,1,4.042,4.047v40.544a4.045,4.045,0,0,1-4.042,4.047" transform="translate(-1233.819 2233.616)" fill="#354a53"/>
      </g>
      <g id="g88" transform="translate(2236.069 -3780.186)">
        <path id="path90" d="M1374.476-2181.984h-119.4a3.459,3.459,0,0,1-3.461-3.46v-30.977a3.459,3.459,0,0,1,3.461-3.46h119.4a3.459,3.459,0,0,1,3.465,3.46v30.977a3.459,3.459,0,0,1-3.465,3.46" transform="translate(-1251.618 2219.881)" fill="#d1d3d4"/>
      </g>
      <g id="g92" transform="translate(2270.885 -3780.186)">
        <path id="path94" d="M1358.528-2181.984h-8.241l13.1-37.9h8.241l-13.1,37.9" transform="translate(-1350.286 2219.881)" fill="#f1f2f2"/>
      </g>
      <g id="g96" transform="translate(2283.86 -3780.186)">
        <path id="path98" d="M1395.294-2181.984h-8.237l13.1-37.9h8.242l-13.1,37.9" transform="translate(-1387.058 2219.881)" fill="#e1e3e3"/>
      </g>
      <g id="g100" transform="translate(2073.382 -3498.38)">
        <path id="path102" d="M1499.995-1062.507H790.561v-338.528s441.816-50.184,716.089,7.622l-6.655,330.906" transform="translate(-790.561 1421.242)" fill="#a3a7ab"/>
      </g>
      <path id="path104" d="M1637.04-1374.157c-22.649-.339-103.218,1.383-103.218,1.383l48.37,170.354v170.355h109.63l7.071-170.355,48.37-170.354s-86.845-1.722-110.223-1.383" transform="translate(801.824 -2107.58)" fill="#bcbec0"/>
      <g id="g106" transform="translate(2335.648 -3481.781)">
        <g id="g108" transform="translate(0 0)" clip-path="url(#clip-path)">
          <path id="path114" d="M1645.276-1400.854l10.4,44.559a60.354,60.354,0,0,0,58.772,46.634h0a60.361,60.361,0,0,0,57.685-42.6l16.692-54.227-143.551,5.636" transform="translate(-1605.949 1395.097)" fill="#57767c"/>
        </g>
      </g>
      <path id="path116" d="M1805.8-1317.828h-68.689a2.6,2.6,0,0,1-2.6-2.6v-28.694a2.6,2.6,0,0,1,2.6-2.6H1805.8a2.6,2.6,0,0,1,2.6,2.6v28.694a2.6,2.6,0,0,1-2.6,2.6" transform="translate(671.948 -2122.131)" fill="#354a53"/>
      <path id="path118" d="M1745.52-1239.6h-10.355a.648.648,0,0,1-.649-.649v-4.992a.651.651,0,0,1,.649-.649h10.355a.651.651,0,0,1,.649.649v4.992a.648.648,0,0,1-.649.649" transform="translate(671.948 -2190.616)" fill="#354a53"/>
      <path id="path120" d="M1781.173-1239.6h-10.355a.648.648,0,0,1-.649-.649v-4.992a.651.651,0,0,1,.649-.649h10.355a.651.651,0,0,1,.649.649v4.992a.648.648,0,0,1-.649.649" transform="translate(648.875 -2190.616)" fill="#354a53"/>
      <path id="path122" d="M1816.427-1239.6h-10.355a.647.647,0,0,1-.649-.649v-4.992a.651.651,0,0,1,.649-.649h10.355a.651.651,0,0,1,.649.649v4.992a.648.648,0,0,1-.649.649" transform="translate(626.061 -2190.616)" fill="#354a53"/>
      <path id="path124" d="M1851.68-1239.6h-10.355a.648.648,0,0,1-.649-.649v-4.992a.648.648,0,0,1,.649-.649h10.355a.651.651,0,0,1,.649.649v4.992a.648.648,0,0,1-.649.649" transform="translate(603.247 -2190.616)" fill="#354a53"/>
      <path id="path126" d="M1886.933-1239.6h-10.355a.645.645,0,0,1-.649-.649v-4.992a.648.648,0,0,1,.649-.649h10.355a.651.651,0,0,1,.649.649v4.992a.648.648,0,0,1-.649.649" transform="translate(580.433 -2190.616)" fill="#354a53"/>
      <path id="path128" d="M1922.173-1239.6h-10.35a.649.649,0,0,1-.654-.649v-4.992a.652.652,0,0,1,.654-.649h10.35a.652.652,0,0,1,.654.649v4.992a.649.649,0,0,1-.654.649" transform="translate(557.628 -2190.616)" fill="#354a53"/>
      <path id="path130" d="M1747.1-1211.72a6.293,6.293,0,0,1-6.29,6.29,6.29,6.29,0,0,1-6.29-6.29,6.29,6.29,0,0,1,6.29-6.29,6.293,6.293,0,0,1,6.29,6.29" transform="translate(671.948 -2208.658)" fill="#354a53"/>
      <path id="path132" d="M1748.729-1208.131a4.331,4.331,0,0,1-4.333,4.333,4.331,4.331,0,0,1-4.333-4.333,4.331,4.331,0,0,1,4.333-4.333,4.331,4.331,0,0,1,4.333,4.333" transform="translate(668.358 -2212.248)" fill="#57767c"/>
      <path id="path134" d="M1878.109-1212.267a6.293,6.293,0,0,1-6.29,6.29,6.29,6.29,0,0,1-6.29-6.29,6.287,6.287,0,0,1,6.29-6.29,6.29,6.29,0,0,1,6.29,6.29" transform="translate(587.164 -2208.304)" fill="#354a53"/>
      <path id="path136" d="M1879.733-1208.677a4.334,4.334,0,0,1-4.333,4.333,4.335,4.335,0,0,1-4.338-4.333,4.335,4.335,0,0,1,4.338-4.333,4.334,4.334,0,0,1,4.333,4.333" transform="translate(583.583 -2211.894)" fill="#57767c"/>
      <path id="path138" d="M1782.121-1201.484h-5.086a.226.226,0,0,1-.226-.226v-1.355a.226.226,0,0,1,.226-.226h5.086a.226.226,0,0,1,.226.226v1.355a.226.226,0,0,1-.226.226" transform="translate(644.578 -2218.184)" fill="#a3a7ab"/>
      <path id="path140" d="M1799.489-1201.484h-5.081a.226.226,0,0,1-.226-.226v-1.355a.226.226,0,0,1,.226-.226h5.081a.227.227,0,0,1,.23.226v1.355a.227.227,0,0,1-.23.226" transform="translate(633.335 -2218.184)" fill="#a3a7ab"/>
      <path id="path142" d="M1816.863-1201.484h-5.081a.226.226,0,0,1-.226-.226v-1.355a.226.226,0,0,1,.226-.226h5.081a.223.223,0,0,1,.226.226v1.355a.223.223,0,0,1-.226.226" transform="translate(622.092 -2218.184)" fill="#a3a7ab"/>
      <path id="path144" d="M1834.236-1201.484h-5.081a.223.223,0,0,1-.226-.226v-1.355a.223.223,0,0,1,.226-.226h5.081a.223.223,0,0,1,.226.226v1.355a.223.223,0,0,1-.226.226" transform="translate(610.849 -2218.184)" fill="#a3a7ab"/>
      <path id="path146" d="M1851.609-1201.484h-5.081a.223.223,0,0,1-.226-.226v-1.355a.223.223,0,0,1,.226-.226h5.081a.223.223,0,0,1,.226.226v1.355a.223.223,0,0,1-.226.226" transform="translate(599.606 -2218.184)" fill="#a3a7ab"/>
      <path id="path148" d="M1796.024-1107.331h-96.509v-3.693h96.509v3.693" transform="translate(694.598 -2277.894)" fill="#a3a7ab"/>
      <path id="path150" d="M1796.024-1086.526h-96.509v-3.7h96.509v3.7" transform="translate(694.598 -2291.354)" fill="#a3a7ab"/>
      <path id="path152" d="M1796.024-1065.717h-96.509v-3.693h96.509v3.693" transform="translate(694.598 -2304.823)" fill="#a3a7ab"/>
      <path id="path154" d="M1796.024-1044.9h-96.509v-3.693h96.509v3.693" transform="translate(694.598 -2318.292)" fill="#a3a7ab"/>
      <path id="path156" d="M1796.024-1024.091h-96.509v-3.693h96.509v3.693" transform="translate(694.598 -2331.762)" fill="#a3a7ab"/>
      <path id="path158" d="M1796.024-1003.278h-96.509v-3.693h96.509v3.693" transform="translate(694.598 -2345.231)" fill="#a3a7ab"/>
      <path id="path160" d="M1796.024-982.464h-96.509v-3.693h96.509v3.693" transform="translate(694.598 -2358.7)" fill="#a3a7ab"/>
      <g id="g162" transform="translate(2527.821 -3480.202)">
        <path id="path164" d="M2078.555-1242.015l32.292-125.143a3.416,3.416,0,0,1,3.505-2.561c20.6,1.2,149.7,9.288,218.362,27.785a3.421,3.421,0,0,1,2.521,3.585l-9.259,114.123a3.419,3.419,0,0,1-3.646,3.138l-240.7-16.659a3.419,3.419,0,0,1-3.08-4.268" transform="translate(-2078.445 1369.725)" fill="#bcbec0"/>
      </g>
      <path id="path166" d="M1122.956-1242.021l-32.289-125.142a3.415,3.415,0,0,0-3.505-2.564c-20.607,1.2-149.7,9.292-218.362,27.786a3.426,3.426,0,0,0-2.525,3.585l9.258,114.123a3.424,3.424,0,0,0,3.646,3.138l240.7-16.66a3.417,3.417,0,0,0,3.072-4.267" transform="translate(1233.83 -2110.472)" fill="#bcbec0"/>
      <path id="path168" d="M1153.241-1446.293v-46.168a28.855,28.855,0,0,0,19.459-19.459h48.563a77.12,77.12,0,0,1-68.021,65.627Zm-85.128-76.528a77.075,77.075,0,0,1,68.8-76.532v51.639a28.82,28.82,0,0,0-20.642,27.626,28.811,28.811,0,0,0,20.642,27.626v46.168A77.074,77.074,0,0,1,1068.113-1522.821Zm153.728-5.429H1172.7a28.853,28.853,0,0,0-19.459-19.464v-51.639A77.089,77.089,0,0,1,1221.841-1528.25Zm-76.766-87.866a93.4,93.4,0,0,0-93.293,93.3,93.4,93.4,0,0,0,93.293,93.291,93.4,93.4,0,0,0,93.293-93.291,93.4,93.4,0,0,0-93.293-93.3" transform="translate(1113.774 -1951.027)" fill="#414042"/>
      <path id="path170" d="M284.386-2091.968l101.549,206.106-174.89,55.1s-39.492-179.933,73.341-261.2" transform="translate(1662.184 -1643.083)" fill="#a7d8df"/>
      <g id="g172" transform="translate(1866.532 -3735.051)">
        <g id="g174" transform="translate(0 0)" clip-path="url(#clip-path-2)">
          <path id="path180" d="M540.457-1610.085H459.435a8.879,8.879,0,0,1-8.88-8.878v-50.67a8.88,8.88,0,0,1,8.88-8.882h81.022a8.881,8.881,0,0,1,8.88,8.882v50.67a8.88,8.88,0,0,1-8.88,8.878" transform="translate(-363.679 1824.406)" fill="#354a53"/>
          <path id="path182" d="M561.322-1603.444H475.216a1.111,1.111,0,0,1-1.11-1.11v-44.3a1.111,1.111,0,0,1,1.11-1.11h86.106a1.111,1.111,0,0,1,1.11,1.11v44.3a1.111,1.111,0,0,1-1.11,1.11" transform="translate(-378.92 1805.932)" fill="#d1d3d4"/>
          <path id="path184" d="M522.118-1603.444h-6.75l12.58-46.525h6.75l-12.58,46.525" transform="translate(-405.623 1805.932)" fill="#e8e6e7"/>
          <path id="path186" d="M553.319-1603.444h-11.1l12.58-46.525h10.167l-11.649,46.525" transform="translate(-423 1805.932)" fill="#e8e6e7"/>
        </g>
      </g>
      <path id="path188" d="M228.8-1420.284l121.553,275.266a76.749,76.749,0,0,0,70.2,45.74H479.81l-70.4-378.784L228.8-1420.284" transform="translate(1646.358 -2040.367)" fill="#bcbec0"/>
      <g id="g190" transform="translate(1875.162 -3518.43)">
        <g id="g192" transform="translate(0 0)" clip-path="url(#clip-path-3)">
          <path id="path198" d="M249.766-1337.655l208.323-68.835,9.213,19.327-210.08,71.145-7.456-21.637" transform="translate(-242.37 1431.745)" fill="#57767c"/>
          <path id="path200" d="M387.206-1126.688l52.522-19.882.026.386a29,29,0,0,1-18.506,29.038,28.994,28.994,0,0,1-30.494-6.135l-3.548-3.406" transform="translate(-331.313 1263.54)" fill="#57767c"/>
        </g>
      </g>
      <g id="g202" transform="translate(2801.83 -3739.493)">
        <path id="path204" d="M2956.537-2104.557l-101.551,206.108,174.888,55.094s39.494-179.931-73.337-261.2" transform="translate(-2854.986 2104.557)" fill="#a7d8df"/>
      </g>
      <g id="g206" transform="translate(2801.827 -3739.492)">
        <g id="g208" transform="translate(0)" clip-path="url(#clip-path-4)">
          <g id="g214" transform="translate(-4.064 145.889)">
            <path id="path216" d="M2852.339-1622.672h81.022a8.879,8.879,0,0,0,8.878-8.88v-50.67a8.88,8.88,0,0,0-8.878-8.881h-81.022a8.876,8.876,0,0,0-8.878,8.881v50.67a8.875,8.875,0,0,0,8.878,8.88" transform="translate(-2843.461 1691.104)" fill="#354a53"/>
          </g>
          <g id="g218" transform="translate(-1.929 155.965)">
            <path id="path220" d="M2850.627-1616.023h86.108a1.11,1.11,0,0,0,1.107-1.111v-44.3a1.11,1.11,0,0,0-1.107-1.111h-86.108a1.111,1.111,0,0,0-1.114,1.111v44.3a1.111,1.111,0,0,0,1.114,1.111" transform="translate(-2849.513 1662.548)" fill="#d1d3d4"/>
          </g>
          <g id="g222" transform="translate(52.512 155.962)">
            <path id="path224" d="M3023.132-1616.032h-6.754l-12.58-46.526h6.754l12.58,46.526" transform="translate(-3003.798 1662.557)" fill="#e8e6e7"/>
          </g>
          <g id="g226" transform="translate(39.62 155.964)">
            <path id="path228" d="M2990.009-1616.027h-11.1l-11.649-46.526h10.166l12.581,46.526" transform="translate(-2967.261 1662.553)" fill="#e8e6e7"/>
          </g>
        </g>
      </g>
      <g id="g230" transform="translate(2722.962 -3520.951)">
        <path id="path232" d="M2882.477-1427.429l-121.551,275.261a76.754,76.754,0,0,1-70.208,45.744h-59.245l70.389-378.784,180.614,57.779" transform="translate(-2631.474 1485.208)" fill="#bcbec0"/>
      </g>
      <g id="g234" transform="translate(2722.961 -3520.951)">
        <g id="g236" transform="translate(0 0)" clip-path="url(#clip-path-5)">
          <g id="g242" transform="translate(26.073 25.252)">
            <path id="path244" d="M2922.9-1344.813l-208.326-68.833-9.212,19.327,210.08,71.148,7.457-21.641" transform="translate(-2705.365 1413.646)" fill="#57767c"/>
          </g>
          <g id="g246" transform="translate(142.496 116.969)">
            <path id="path248" d="M3087.924-1133.837l-52.522-19.882-.028.386a28.99,28.99,0,0,0,18.509,29.033,29,29,0,0,0,30.49-6.13l3.55-3.406" transform="translate(-3035.307 1153.719)" fill="#57767c"/>
          </g>
        </g>
      </g>
      <path id="path250" d="M1761.854-620.21l-13.432,75.549h43.735l-12.74-76.377-17.563.828" transform="translate(662.948 -2594.984)" fill="#354a53"/>
      <path id="path252" d="M1787.152-663.164c0,7.222-10.793,13.075-24.1,13.075s-24.107-5.853-24.107-13.075,10.793-13.075,24.107-13.075,24.1,5.853,24.1,13.075" transform="translate(669.083 -2559.262)" fill="#57767c"/>
      <path id="path254" d="M1784.668-871.671h0a14.3,14.3,0,0,1-14.26-15.417l9.2-117.563h10l9.315,117.548a14.3,14.3,0,0,1-14.255,15.432" transform="translate(648.749 -2346.732)" fill="#354a53"/>
      <path id="path256" d="M1795.611-1066.857a18.127,18.127,0,0,1-18.127,18.127,18.127,18.127,0,0,1-18.127-18.127,18.127,18.127,0,0,1,18.127-18.127,18.127,18.127,0,0,1,18.127,18.127" transform="translate(655.872 -2294.745)" fill="#57767c"/>
      <g id="g258" transform="translate(2476.747 -3272.381)">
        <path id="path260" d="M1934.436-780.759h309.837s4.842,132.735,0,132.735H2003.163s-77.8-107.937-68.727-132.735" transform="translate(-1933.699 780.759)" fill="#57767c"/>
      </g>
      <g id="g262" transform="translate(2461.785 -3272.377)">
        <path id="path264" d="M1975.719-648.017s-98.361-50.515-82.741-116.908,101.547,97.638,101.547,97.638l-18.806,19.271" transform="translate(-1891.297 780.749)" fill="#3d626f"/>
      </g>
      <g id="g266" transform="translate(2545.276 -3439.96)">
        <path id="path268" d="M2127.913-955.364l76.759-259.29a57.288,57.288,0,0,1,32.7-36.532,57.258,57.258,0,0,1,22.231-4.493H2387.3a43.821,43.821,0,0,1,33.4,15.464,43.824,43.824,0,0,1,9.8,35.563L2392.659-978.4a27.582,27.582,0,0,1-27.205,23.035H2127.913" transform="translate(-2127.913 1255.679)" fill="#354a53"/>
      </g>
      <g id="g270" transform="translate(2545.272 -3439.959)">
        <g id="g272" transform="translate(0)" clip-path="url(#clip-path-6)">
          <g id="g278" transform="translate(-16.438 2.175)">
            <path id="path280" d="M2207.223-1247.2s17.558,9.419,6.463,51.014-72.917,251.639-72.917,251.639h-59.453l89.564-286.13s9.264-26.709,36.343-16.523" transform="translate(-2081.315 1249.512)" fill="#57767c"/>
          </g>
        </g>
      </g>
      <g id="g282" transform="translate(2727.521 -3430.972)">
        <path id="path284" d="M2658.9-1226.889c0,1.83-3.25,3.317-7.255,3.317s-7.255-1.487-7.255-3.317,3.25-3.316,7.255-3.316,7.255,1.482,7.255,3.316" transform="translate(-2644.393 1230.205)" fill="#57767c"/>
      </g>
      <g id="g286" transform="translate(2760.572 -3430.972)">
        <path id="path288" d="M2752.573-1226.891c0,1.83-3.249,3.317-7.256,3.317s-7.255-1.487-7.255-3.317,3.249-3.317,7.255-3.317,7.256,1.482,7.256,3.317" transform="translate(-2738.062 1230.208)" fill="#57767c"/>
      </g>
      <g id="g290" transform="translate(2678.311 -3520.98)">
        <path id="path292" d="M2620.139-1415.965h-89.207a26,26,0,0,1-26-26v-17.331a26,26,0,0,1,26-26h89.207a26,26,0,0,1,25.992,26v17.331a26,26,0,0,1-25.992,26" transform="translate(-2504.934 1485.289)" fill="#354a53"/>
      </g>
      <g id="g294" transform="translate(2678.313 -3520.98)">
        <g id="g296" transform="translate(0 0)" clip-path="url(#clip-path-7)">
          <g id="g302" transform="translate(-24.863 -6.865)">
            <path id="path304" d="M2510.666-1466.65a38.1,38.1,0,0,1-38.1,38.094,38.091,38.091,0,0,1-38.091-38.094,38.092,38.092,0,0,1,38.091-38.1,38.1,38.1,0,0,1,38.1,38.1" transform="translate(-2434.477 1504.745)" fill="#57767c"/>
          </g>
        </g>
      </g>
      <g id="g306" transform="translate(2732.215 -3457.197)">
        <path id="path308" d="M2660.067-1274.64h0a2.375,2.375,0,0,1-2.371-2.376v-25.142a2.371,2.371,0,0,1,2.371-2.371,2.372,2.372,0,0,1,2.377,2.371v25.142a2.376,2.376,0,0,1-2.377,2.376" transform="translate(-2657.696 1304.529)" fill="#c3d3d2"/>
      </g>
      <g id="g310" transform="translate(2765.457 -3457.196)">
        <path id="path312" d="M2754.277-1274.636h0a2.372,2.372,0,0,1-2.371-2.376v-25.143a2.368,2.368,0,0,1,2.371-2.371,2.372,2.372,0,0,1,2.371,2.371v25.143a2.376,2.376,0,0,1-2.371,2.376" transform="translate(-2751.906 1304.526)" fill="#c3d3d2"/>
      </g>
      <path id="path314" d="M1060.417-1787.544s13.493,26.088,10.345,45.876l1.488,8.29a30.993,30.993,0,0,1-2.1,17.869l-12.314,28.219a16.211,16.211,0,0,1-18.877,9.221l-5.979-1.529-8.1,31.037H984.907l9.394-147.08s54.872-14.839,66.117,8.1" transform="translate(1157.052 -1831.793)" fill="#f38b8a"/>
      <path id="path316" d="M991.536-1818.95c-2.715,4.173-6.823,9.358-11.359,11.122,0,0,15.153,12.477,14.708,26.742s.009,19.492.009,19.492h-3.169s.727-18.664-7.271-18.9-11.221,21.567-4.278,31.5l-10.7,23.519a28.818,28.818,0,0,1-23.393,16.735l-2.823.278a49.708,49.708,0,0,1-47.578-24.055c-13.768-23.086-27.812-56.217-13.6-79.543,23.946-39.308,38.4-26.657,38.4-26.657s51.583-25.01,71.218,7.447a11.588,11.588,0,0,1-.167,12.322" transform="translate(1227.435 -1801.018)" fill="#58134c"/>
      <path id="path318" d="M1076.588-780.758H766.755s-4.841,132.735,0,132.735h241.111s77.8-107.936,68.722-132.735" transform="translate(1299.619 -2491.623)" fill="#57767c"/>
      <path id="path320" d="M1419.513-648.017s98.362-50.515,82.738-116.908S1400.7-667.288,1400.7-667.288l18.81,19.271" transform="translate(887.972 -2491.628)" fill="#3d626f"/>
      <path id="path322" d="M1460.792-892.214s-.88-84.756-44.85-63.636S1344.49-897.2,1344.49-897.2l23.416,79.092,59.859-64.173a34.183,34.183,0,0,1,31.757-10.19l1.27.259" transform="translate(924.35 -2376.126)" fill="#58134c"/>
      <path id="path324" d="M1103.6-1289.96l1.844,21.679s-78.259,29.7-105.739,23.129-54.233-61.571-54.233-61.571l39.86,90.651a46.611,46.611,0,0,1,1.237,34.411h0a46.184,46.184,0,0,1-52.417,29.814l-176.976-34.8v-204.845s13.821-16.086,52.083-14.947c0,0,65.853.6,112.738,7.518a75.8,75.8,0,0,1,54.2,36.457l40.786,69.056,86.619,3.444" transform="translate(1304.426 -2086.682)" fill="#e5505b"/>
      <path id="path326" d="M900.6-955.363l-76.761-259.288a57.284,57.284,0,0,0-32.7-36.532,57.277,57.277,0,0,0-22.231-4.493H641.215a43.8,43.8,0,0,0-33.4,15.465,43.8,43.8,0,0,0-9.8,35.563l37.427,223.782a30.542,30.542,0,0,0,30.126,25.5H900.6" transform="translate(1407.816 -2184.282)" fill="#354a53"/>
      <g id="g328" transform="translate(2005.228 -3439.959)">
        <g id="g330" transform="translate(0)" clip-path="url(#clip-path-8)">
          <path id="path336" d="M1127.836-1247.192s-17.562,9.419-6.465,51.014,72.92,251.638,72.92,251.638h59.445l-89.564-286.129s-9.262-26.709-36.335-16.523" transform="translate(-934.109 1251.685)" fill="#57767c"/>
        </g>
      </g>
      <path id="path338" d="M899.032-1226.893c0,1.83,3.248,3.317,7.255,3.317s7.256-1.487,7.256-3.317-3.249-3.317-7.256-3.317-7.255,1.482-7.255,3.317" transform="translate(1212.625 -2200.763)" fill="#57767c"/>
      <path id="path340" d="M805.362-1226.893c0,1.83,3.248,3.317,7.255,3.317s7.255-1.487,7.255-3.317-3.248-3.317-7.255-3.317-7.255,1.482-7.255,3.317" transform="translate(1273.243 -2200.763)" fill="#57767c"/>
      <path id="path342" d="M705.462-1415.965h89.2a26,26,0,0,0,26-26v-17.328a26,26,0,0,0-26-26h-89.2a26,26,0,0,0-26,26v17.328a26,26,0,0,0,26,26" transform="translate(1354.716 -2035.69)" fill="#354a53"/>
      <g id="g344" transform="translate(2034.181 -3520.98)">
        <g id="g346" transform="translate(0 0)" clip-path="url(#clip-path-9)">
          <path id="path352" d="M934.167-1466.649a38.094,38.094,0,0,0,38.094,38.094,38.094,38.094,0,0,0,38.095-38.094,38.094,38.094,0,0,0-38.095-38.094,38.094,38.094,0,0,0-38.094,38.094" transform="translate(-844.294 1497.879)" fill="#57767c"/>
        </g>
      </g>
      <path id="path354" d="M915.781-1274.641h0a2.374,2.374,0,0,0,2.372-2.376v-25.142a2.37,2.37,0,0,0-2.372-2.371,2.37,2.37,0,0,0-2.372,2.371v25.142a2.374,2.374,0,0,0,2.372,2.376" transform="translate(1203.321 -2152.667)" fill="#c3d3d2"/>
      <path id="path356" d="M821.573-1274.641h0a2.374,2.374,0,0,0,2.372-2.376v-25.142a2.37,2.37,0,0,0-2.372-2.371,2.37,2.37,0,0,0-2.372,2.371v25.142a2.374,2.374,0,0,0,2.372,2.376" transform="translate(1264.287 -2152.667)" fill="#c3d3d2"/>
      <path id="path358" d="M1738.942-1098.415s28.36-18.334,37.21-9.852c5.377,5.152,4.309,11.334,2.573,16.932-1.336,4.314-7.777,8.191-11.847,10.148a49.829,49.829,0,0,1-26.125,4.4l-1.811-21.628" transform="translate(669.083 -2278.228)" fill="#f38b8a"/>
      <g id="g360" transform="translate(2483.162 -3735.049)">
        <path id="path362" d="M2274.045-2091.962H2053.722a13.247,13.247,0,0,0-13.245,13.245v96.559l-88.6,62.178h88.6v7.819a13.246,13.246,0,0,0,13.245,13.245h220.323a13.246,13.246,0,0,0,13.245-13.245v-166.556a13.247,13.247,0,0,0-13.245-13.245" transform="translate(-1951.879 2091.962)" fill="#fff9f9"/>
      </g>
      <g id="g364" transform="translate(2476.358 -3741.86)">
        <path id="path366" d="M2261.571-2111.267H2041.25a20.072,20.072,0,0,0-20.05,20.05v93.023l-85.7,60.147a6.8,6.8,0,0,0-2.587,7.62,6.813,6.813,0,0,0,6.5,4.754H2021.2v1.015a20.072,20.072,0,0,0,20.05,20.049h220.321a20.072,20.072,0,0,0,20.05-20.049v-166.56A20.072,20.072,0,0,0,2261.571-2111.267Zm0,6.806a13.248,13.248,0,0,1,13.244,13.244v166.56a13.247,13.247,0,0,1-13.244,13.245H2041.25a13.243,13.243,0,0,1-13.244-13.245v-7.819h-88.6l88.6-62.179v-96.561a13.244,13.244,0,0,1,13.244-13.244h220.321" transform="translate(-1932.596 2111.267)" fill="#a7a9ac"/>
      </g>
      <g id="g368" transform="translate(2634.717 -3578.339)">
        <path id="path370" d="M2381.388-1611.511s24-37.547,65.7-36.305,80.091,36.305,80.091,36.305h-145.8" transform="translate(-2381.388 1647.847)" fill="#7169fd"/>
      </g>
      <g id="g372" transform="translate(2610.042 -3677.684)">
        <path id="path374" d="M2321.061-1904.773c-3.271,12.209,2.722,25.477-.554,37.681-1.451,5.39-4.608,10.149-6.645,15.344-2.663,6.775-3.336,14.5-.87,21.337,1.657,4.575,4.608,8.552,6.83,12.883,2.814,5.488,4.809,11.986,10.079,15.186,4.233,2.575,9.53,2.331,14.469,2,4.738-.31,9.628-.663,13.844-2.831a24.516,24.516,0,0,1,4.956-2.4c2.309-.592,4.971-.065,6.955-1.4a7.6,7.6,0,0,0,2.624-4.233c3.613-11.443.646-24.092,3.765-35.681.918-3.428,2.364-6.7,3.244-10.15a58.557,58.557,0,0,0,1.429-12.546q.448-12.241.011-24.488c-.2-5.863-.6-11.9-3.168-17.169-3.227-6.623-9.579-11.3-16.419-14.023a62.413,62.413,0,0,0-11.752-3.217c-2.722-.5-6.249-1.587-8.911-.293-2.7,1.309-5.124,3.847-7.335,5.83a54.674,54.674,0,0,0-7.3,7.748,30.775,30.775,0,0,0-5.254,10.427" transform="translate(-2311.46 1929.388)" fill="#58134c"/>
      </g>
      <g id="g376" transform="translate(2636.892 -3674.536)">
        <path id="path378" d="M2478.127-1812.825l-9.268-77.585-.189.2c.5-16.016-.166-30.258-.166-30.258h-75.931s-8.065,34.6-3.755,57.019c2.833,14.722,13.469,27.556,20.441,34.637a16.478,16.478,0,0,0,14.4,4.694c2.53-.406,5.707-1.855,9.147-3.847l2.6,10.756a17.044,17.044,0,0,0,22.547,11.944l20.172-7.56" transform="translate(-2387.551 1920.468)" fill="#f38b8a"/>
      </g>
      <g id="g380" transform="translate(2640.354 -3693.088)">
        <path id="path382" d="M2428.953-1928.385c3.629.6,7.452.726,10.7,2.456,5.008,2.673,7.4,8.462,8.952,13.917s2.794,11.311,6.659,15.466c2.28,2.45,5.3,4.1,7.663,6.484,3.006,3.03,4.76,7.089,5.964,11.185a56.515,56.515,0,0,1-.943,34.535,5.166,5.166,0,0,0,4.694,6.908c11.389.348,22.972-.433,32.317-6.622,32.371-21.439,16.427-67.931,3.169-95.451-1.536-3.187-3.115-6.363-4.7-9.526-4.748-9.49-11.6-18.659-22.095-21.962-11.9-3.75-24.78-1.258-36.968-1-9.611.206-19.355-1.681-28.772.236a26.744,26.744,0,0,0-12.394,6.127c-2.776,2.474-6.671,7.2-5.679,11.256.448,1.851,2.02,3.345,3.012,4.911,1.288,2.038,2.4,4.131,3.871,6.055a40.215,40.215,0,0,0,10.1,9.339,38.263,38.263,0,0,0,14.456,5.685" transform="translate(-2397.361 1973.046)" fill="#58134c"/>
      </g>
      <g id="g384" transform="translate(2634.407 -3641.678)">
        <path id="path386" d="M2394.53-1824.746l-11.533-2.6-2.488,7.1,15.707-1.307-1.685-3.187" transform="translate(-2380.508 1827.35)" fill="#58134c"/>
      </g>
      <g id="g388" transform="translate(2658.326 -3644.664)">
        <path id="path390" d="M2448.294-1827.222l2.056-4.3,18.869-4.292,4.106,6.533-25.032,2.056" transform="translate(-2448.294 1835.811)" fill="#58134c"/>
      </g>
      <g id="g392" transform="translate(2641.842 -3632.552)">
        <path id="path394" d="M2404.74-1797.555c.287,2.276-.162,4.207-1.018,4.317s-1.77-1.65-2.057-3.926.167-4.207,1.013-4.317,1.77,1.65,2.062,3.925" transform="translate(-2401.58 1801.485)" fill="#58134c"/>
      </g>
      <g id="g396" transform="translate(2665.474 -3634.769)">
        <path id="path398" d="M2471.714-1803.84c.29,2.28-.167,4.212-1.014,4.319s-1.771-1.652-2.061-3.927.167-4.206,1.014-4.313,1.771,1.647,2.061,3.922" transform="translate(-2468.552 1807.767)" fill="#58134c"/>
      </g>
      <g id="g400" transform="translate(2649.083 -3632.132)">
        <path id="path402" d="M2428.414-1800.295a31.927,31.927,0,0,1,.408,5.173c.016.869-.011,1.733-.063,2.6s-.133,1.739-.26,2.6a21.958,21.958,0,0,1-1.293,5.168,10.8,10.8,0,0,1-1.341,2.47,5.766,5.766,0,0,1-2.353,1.924l.562-.933a6.124,6.124,0,0,0,.217,1.171,9.23,9.23,0,0,0,.461,1.171,6.128,6.128,0,0,0,1.548,1.993,6.3,6.3,0,0,0,.519.392,3.027,3.027,0,0,0,.562.344c.2.1.382.228.594.313l.631.249c.424.175.88.255,1.336.4l1.4.254c-.472.064-.954.132-1.447.164a10.588,10.588,0,0,1-1.468-.074,7.424,7.424,0,0,1-2.883-.991,6.87,6.87,0,0,1-2.236-2.215,7.145,7.145,0,0,1-.71-1.426,7.336,7.336,0,0,1-.414-1.606l-.084-.6.641-.334a6.593,6.593,0,0,0,2.581-3.429,30.44,30.44,0,0,0,1.394-4.722c.17-.816.339-1.643.5-2.47l.424-2.507.774-5.083" transform="translate(-2422.102 1800.295)" fill="#58134c"/>
      </g>
      <g id="g404" transform="translate(2654.226 -3606.839)">
        <path id="path406" d="M2436.676-1719.705s14.879-.9,18-8.909c0,0,2.853,11.513-9,13.647,0,0-3.269,1.259-9-4.738" transform="translate(-2436.676 1728.615)" fill="#fff9f9"/>
      </g>
      <g id="g408" transform="translate(2682.141 -3598.311)">
        <path id="path410" d="M2515.787-1688.167s11.714-5.567,11.991-16.279c0,0,2.224,25.675-9.152,27.882l-2.839-11.6" transform="translate(-2515.787 1704.446)" fill="#e96163"/>
      </g>
    </g>
  </g>
</svg>
